<svg id="aphroditeLogo2" viewBox="0 0 1701.037 554.466">
<path class="path1" d="M391.981,391.388l-16.605,23.128h-32.318l18.679-26.686c-36.572-6.343-69.085-19.728-97.55-40.149
	c-60.093,48.711-117.222,73.062-171.381,73.062c-23.326,0-44.624-6.227-63.897-18.68C9.637,389.608,0,373.996,0,355.214
	c0-10.275,2.914-18.332,8.747-24.165c5.829-5.828,12.305-8.747,19.421-8.747c6.522,0,12.055,2.224,16.604,6.672
	c4.545,4.447,6.82,9.738,6.82,15.863c0,5.337-1.928,9.886-5.783,13.639c-3.854,3.758-8.552,5.634-14.084,5.634
	c-12.453,0-19.078-8.103-19.866-24.313l-1.186-0.297c-4.745,5.713-7.117,12.014-7.117,18.907c0,15.951,9.386,29.836,28.168,41.649
	c18.778,11.814,40.422,17.722,64.935,17.722c29.252,0,59.991-8.071,92.214-24.212c32.217-16.141,56.53-32.189,72.94-48.136
	c-44.083-41.511-66.121-86.084-66.121-133.725c0-29.252,7.756-54.01,23.276-74.274c15.515-20.26,34.839-30.392,57.966-30.392
	c26.287,0,50.207,10.526,71.754,31.578c21.543,21.052,37.954,48.775,49.221,83.17c82.03-75.906,140.642-125.719,175.829-149.439
	c35.182-23.72,66.958-41.459,95.326-53.223C697.429,7.366,724.165,0.991,749.271,0l-83.318,75.665
	c-39.731,36.007-89.545,89.169-149.438,159.497c-59.895,70.328-100.618,121.415-122.161,153.261
	c33.487-1.798,61.358-11.976,83.614-30.54l2.076,2.075C457.777,378.342,428.423,388.821,391.981,391.388z M264.187,343.9
	c15.58-11.846,38.36-31.541,68.339-59.088c29.98-27.547,50.888-47.737,62.726-60.571c-8.093-28.367-22.159-52.866-42.192-73.501
	c-20.033-20.635-41.993-30.953-65.876-30.953c-24.87,0-45.643,9.206-62.322,27.608c-16.678,18.402-25.017,41.557-25.017,69.457
	C199.846,262.765,221.291,305.114,264.187,343.9z M363.813,385.458c24.115-46.339,36.173-87.831,36.173-124.468
	c0-10.693-1.283-21.983-3.85-33.867c-49.308,48.881-92.5,88.558-129.578,119.034c10.276,8.533,25.004,16.725,44.18,24.563
	C329.909,378.56,347.603,383.475,363.813,385.458z M398.504,225.252c2.966,11.299,4.447,22.993,4.447,35.085
	c0,29.734-8.797,64.522-26.389,104.365l2.372,1.187c52.38-72.148,114.942-144.695,187.688-217.636
	c72.742-72.94,129.175-120.28,169.306-142.026l-0.594-2.075c-38.351,3.553-83.419,21.413-135.207,53.575
	C548.337,89.888,481.127,145.732,398.504,225.252z"/>
<path class="path2" d="M480.148,359.958l-2.081-2.075c29.104-24.906,61.776-50.8,98.009-77.685l40.395-29.947
	c4.549-3.358,17.715-14.232,39.5-32.616l18.68-0.89L548.97,348.395l-16.896,16.308l1.482,2.372
	c59.676-50.406,99.593-75.608,119.751-75.608c5.138,0,9.586,2.08,13.338,6.24c3.753,4.16,5.634,9.414,5.634,15.752
	c0,5.351-1.687,11.545-5.059,18.578c-3.373,7.032-13.991,17.586-31.847,31.651c-27.779,21.2-41.668,35.173-41.668,41.909
	c0,6.936,4.448,10.401,13.343,10.401c13.639,0,42.994-19.37,88.063-58.115l2.075,2.075c-46.922,39.732-77.179,59.598-90.782,59.598
	c-4.929,0-9.27-1.687-13.014-5.05c-3.743-3.368-5.615-8.621-5.615-15.756c0-6.537,1.381-12.532,4.152-17.98
	c2.765-5.448,6.323-10.351,10.673-14.71c4.346-4.359,14.13-12.68,29.354-24.967l16.901-13.672
	c10.674-8.719,16.011-16.149,16.011-22.293c0-2.97-1.288-5.397-3.854-7.278c-2.572-1.881-5.338-2.826-8.298-2.826
	c-14.033,0-41.895,15.566-83.591,46.699c-41.697,31.134-91.597,76.151-149.693,135.059l-76.18,77.685H314.1l309.256-302.732
	l-1.187-1.779C567.696,288.898,520.357,325.563,480.148,359.958z"/>
<path class="path3" d="M697.121,359.958l-2.07-2.075l28.362-23.424c15.363-12.848,33.635-26.584,54.808-41.215
	c21.172-14.626,31.958-22.136,32.356-22.534l81.969-83.615c16.04-16.405,31.73-31.23,47.076-44.476
	c15.345-13.241,30.438-24.461,45.291-33.653c14.849-9.192,26.282-15.071,34.302-17.642c8.02-2.566,14.306-3.854,18.865-3.854
	c12.073,0,18.115,5.735,18.115,17.197c0,15.224-17.025,36.669-51.069,64.342c-34.042,27.677-78.081,53.867-132.116,78.574
	c-22.766,10.48-35.631,17.3-38.597,20.459l-31.717,35.22c-21.538,23.878-43.373,49.331-65.504,76.359l2.673,0.885
	c21.783-20.699,44.851-39.578,69.211-56.637c24.355-17.054,42.376-25.583,54.062-25.583c12.47,0,18.71,6.314,18.71,18.935
	c0,7.885-1.927,15.524-5.78,22.919c-3.855,7.395-12.407,16.711-25.649,27.945l-18.086,15.382
	c-13.046,11.04-19.569,19.124-19.569,24.248c0,4.93,2.965,7.395,8.896,7.395c17.791,0,48.332-19.073,91.62-57.226l1.779,2.075
	l-23.127,19.473c-11.862,10.03-24.611,18.977-38.251,26.843c-13.639,7.866-24.215,11.8-31.725,11.8
	c-5.143,0-9.242-2.024-12.305-6.064c-3.068-4.04-4.596-9.22-4.596-15.534c0-7.098,2.271-13.653,6.819-19.666
	c4.544-6.014,14.478-15.525,29.799-28.539c15.318-13.01,24.707-21.585,28.169-25.727c3.455-4.142,5.189-7.886,5.189-11.239
	c0-2.956-1.242-5.37-3.717-7.241c-2.473-1.872-5.196-2.813-8.168-2.813c-4.161,0-11.188,2.178-21.089,6.523
	c-9.904,4.35-23.767,12.897-41.59,25.647c-17.826,12.75-35.45,27.478-52.879,44.18c-17.429,16.706-30.994,29.206-40.695,37.508
	h-29.039l122.438-131.056l-1.449-1.482C780.902,292.851,746.995,318.646,697.121,359.958z M1051.45,103.777
	c0-8.303-4.259-12.454-12.773-12.454c-12.083,0-27.237,6.227-45.454,18.68c-18.221,12.454-47.036,39.19-86.448,80.205
	c-39.412,41.02-59.116,62.614-59.116,64.787c0,0.398,13.068-5.435,39.213-17.494c15.444-7.311,30.995-15.418,46.638-24.314
	c23.961-13.833,44.066-27.028,60.307-39.583c16.238-12.55,29.609-25.055,40.108-37.508c8.116-9.488,13.364-17.494,15.742-24.017
	C1050.852,109.114,1051.45,106.348,1051.45,103.777z"/>
<path class="path4" d="M915.45,359.958l-2.077-2.075l45.084-37.063c7.117-5.73,12.16-10.179,15.125-13.343c-6.338-3.753-9.506-8.896-9.506-15.418
	c0-4.151,1.433-7.807,4.3-10.971c2.864-3.16,6.077-4.744,9.637-4.744c2.566,0,4.894,1.089,6.968,3.262
	c2.074,2.177,3.113,4.846,3.113,8.005c0,3.165-1.07,5.884-3.211,8.154c-2.14,2.274-4.763,3.41-7.877,3.41
	c-2.139,0-4.372-0.788-6.707-2.372c-0.195,0.792-0.293,1.288-0.293,1.482c0,1.779,1.371,3.558,4.115,5.337s6.765,2.669,12.056,2.669
	c7.643,0,15.877-1.974,24.696-5.931l15.691,17.494c-3.752,7.339-11.507,16.409-23.258,27.214
	c-11.748,10.804-23.451,22.303-35.103,34.496c-11.65,12.194-18.269,19.481-19.846,21.858c-1.58,2.381-2.368,4.66-2.368,6.843
	c0,5.55,3.158,8.325,9.487,8.325c7.51,0,19.172-4.42,34.988-13.259c15.813-8.84,35.974-23.989,60.487-45.449l2.074,2.075
	c-46.061,39.732-78.773,59.598-98.142,59.598c-5.737,0-10.229-1.83-13.492-5.485s-4.893-8.45-4.893-14.38
	c0-7.511,2.424-15.021,7.274-22.535c4.846-7.51,15.288-19.073,31.318-34.69c16.03-15.613,27.115-27.279,33.251-34.988l-1.192-2.075
	c-8.319,2.965-16.042,4.447-23.168,4.447c-1.983,0-4.063-0.297-6.241-0.89L915.45,359.958z"/>
<path class="path5" d="M1181.973,357.883l2.076,2.075c-7.316,6.922-14.826,10.378-22.535,10.378c-6.328,0-11.666-2.271-16.012-6.819
	c-14.631,15.418-30.242,28.367-46.848,38.842c-16.604,10.479-30.443,15.715-41.51,15.715c-5.736,0-10.578-2.075-14.529-6.227
	c-3.957-4.151-5.93-9.882-5.93-17.197c0-16.799,7.51-32.958,22.533-48.479c15.02-15.516,32.27-27.575,51.74-36.174
	c19.469-8.599,34.938-12.898,46.404-12.898c11.268,0,16.9,5.338,16.9,16.012c0,11.072-8.895,26.982-26.686,47.737
	c3.559,4.351,8.303,6.523,14.232,6.523C1168.527,367.371,1175.25,364.211,1181.973,357.883z M1171.299,312.221
	c0-3.753-1.432-6.819-4.291-9.191c-2.863-2.372-6.064-3.559-9.613-3.559c-14.992,0-37.619,15.024-67.891,45.069
	c-30.271,30.049-45.406,49.915-45.406,59.598c0,2.771,1.381,5.291,4.141,7.561c2.762,2.275,5.918,3.41,9.467,3.41
	c8.283,0,20.162-4.3,35.645-12.898c15.484-8.599,29.09-19.073,40.826-31.43c11.73-12.351,20.852-23.424,27.361-33.208
	C1168.041,327.787,1171.299,319.337,1171.299,312.221z"/>
<path class="path6" d="M1499.949,139.061h24.314l-210.223,209.333c-33.408,33.607-50.109,53.473-50.109,59.598c0,2.571,1.128,4.744,3.394,6.523
	c2.267,1.778,4.782,2.668,7.544,2.668c5.713,0,14.529-3.951,26.453-11.86c11.922-7.903,31.578-23.72,58.972-47.44l2.077,2.075
	l-24.609,20.562c-19.969,16.688-34.202,27.51-42.697,32.477c-8.502,4.966-15.322,7.449-20.46,7.449c-4.55,0-8.45-1.413-11.713-4.229
	c-3.261-2.817-4.892-6.648-4.892-11.485c0-9.683,5.635-21.941,16.902-36.767l-1.188-1.186c-8.301,7.908-20.311,17.642-36.025,29.205
	c-15.715,11.564-26.982,18.532-33.801,20.904c-6.82,2.372-12.898,3.558-18.236,3.558c-6.328,0-11.221-2.178-14.676-6.522
	c-3.461-4.346-5.189-9.883-5.189-16.604c0-14.427,6.57-28.91,19.719-43.438c13.143-14.528,31.082-26.88,53.814-37.063
	c22.73-10.179,40.326-15.27,52.779-15.27c5.336,0,9.783,1.482,13.342,4.447s5.338,6.819,5.338,11.563
	c0,2.771-1.188,7.02-3.559,12.75L1499.949,139.061z M1307.221,317.262c0-8.104-4.646-12.157-13.936-12.157
	c-15.816,0-39.783,14.038-71.902,42.104c-32.125,28.07-48.184,47.839-48.184,59.301c0,6.922,4.25,10.378,12.75,10.378
	c8.697,0,17.541-2.618,26.537-7.857c8.994-5.235,22.832-15.021,41.512-29.354c18.68-14.329,32.217-26.486,40.621-36.47
	C1303.02,333.227,1307.221,324.577,1307.221,317.262z"/>
<path class="path7" d="M1362.374,359.958l-2.08-2.075c9.698-8.303,34.142-27.673,73.327-58.115h28.735l-94.056,92.51
	c-3.559,3.559-5.93,7.116-7.115,10.674v2.076c0,2.571,0.985,4.846,2.965,6.819c1.973,1.979,4.447,2.965,7.412,2.965
	c6.324,0,15.27-3.21,26.834-9.636c11.564-6.422,31.771-22.188,60.635-47.293l2.076,2.075
	c-44.082,38.546-73.831,57.819-89.248,57.819c-4.943,0-8.947-1.585-12.008-4.744c-3.068-3.16-4.598-7.413-4.598-12.75
	c0-7.51,2.525-15.465,7.576-23.869c5.049-8.399,24.008-28.413,56.877-60.042l-0.605-1.482l-27.326,20.755L1362.374,359.958z
	 M1507.658,241.356c0,4.35-1.76,8.005-5.275,10.97c-3.522,2.966-7.232,4.448-11.143,4.448c-2.738,0-5.082-1.038-7.037-3.113
	c-1.955-2.076-2.934-4.596-2.934-7.562c0-3.752,1.657-7.311,4.984-10.674c3.322-3.358,7.039-5.041,11.143-5.041
	c2.928,0,5.375,1.088,7.33,3.261C1506.682,235.824,1507.658,238.391,1507.658,241.356z"/>
<path class="path8" d="M1461.107,359.958l-2.076-2.075l81.225-66.506l34.557-27.19h-26.533l1.182-2.965h29.809l50.254-52.481l25.364-0.593
	l-48.038,53.075h42.539l-0.898,2.965h-45.315l-102.091,108.888c-12.23,13.019-19.582,21.205-22.047,24.559
	c-2.465,3.354-3.698,6.514-3.698,9.47c0,2.965,1.233,5.485,3.706,7.562c2.471,2.075,5.088,3.113,7.857,3.113
	c16.206,0,47.241-19.964,93.104-59.895l2.076,2.075c-47.641,40.918-79.566,61.377-95.771,61.377c-5.143,0-9.539-2.126-13.195-6.375
	c-3.661-4.248-5.484-9.238-5.484-14.974c0-14.825,9.876-32.713,29.637-53.667l60.455-62.859l-1.188-0.89L1461.107,359.958z"/>
<path class="path9" d="M1698.961,357.883l2.076,2.075c-23.67,20.955-45.27,36.128-64.797,45.514c-19.527,9.392-35.107,14.084-46.74,14.084
	c-16.18,0-24.264-8.302-24.264-24.906c0-22.335,15.27-43.387,45.811-63.155c30.539-19.765,54.407-29.651,71.605-29.651
	c3.16,0,5.879,0.89,8.154,2.669c2.27,1.779,3.41,3.956,3.41,6.523c0,9.687-9.613,19.865-28.83,30.54
	c-19.223,10.674-40.526,17.299-63.902,19.865c-20.213,20.163-30.318,34.001-30.318,41.511c0,3.559,1.778,6.871,5.338,9.934
	c3.559,3.063,7.709,4.596,12.453,4.596c10.275,0,24.855-4.494,43.734-13.491C1651.566,394.997,1673.656,379.63,1698.961,357.883z
	 M1605.944,358.476c5.946,0,16.447-2.58,31.51-7.751c15.057-5.165,27.595-11.823,37.601-19.977
	c10.008-8.149,15.012-14.909,15.012-20.273c0-3.776-2.184-5.666-6.537-5.666c-5.156,0-10.855,1.593-17.096,4.771
	c-6.246,3.178-15.706,9.688-28.387,19.527C1625.363,338.948,1614.664,348.737,1605.944,358.476z"/>
</svg>