<svg id="aphroditeLogo" width="100%" height="100%" viewBox="0 0 349.929 295.083" >
<path  d="M243.645,233.339c0,0-20.487,39.925-68.68,39.925l-0.021,0.042v-0.042
	c-48.191,0-68.715-39.925-68.715-39.925c-50.971,12.015-81.721-7.784-81.721-7.784c45.275,75.297,150.457,69.421,150.457,69.421
	s105.18,5.876,150.418-69.421C325.383,225.555,294.616,245.354,243.645,233.339"/>
<path  d="M328.357,160.72c8.09-4.75,13.521-13.483,13.521-23.543c0-15.074-12.254-27.307-27.304-27.307
	c-2.114,0-4.164,0.26-6.117,0.727c3.521-4.73,5.614-10.588,5.614-16.966c0-15.758-12.82-28.574-28.553-28.574
	c-5.012,0-9.721,1.289-13.809,3.583c2.177-4.086,3.424-8.733,3.424-13.687c0-16.297-13.281-29.599-29.6-29.599
	c-13.541,0-24.992,9.217-28.454,21.732c0.161-1.548,0.322-3.079,0.322-4.689C217.403,19.036,198.347,0,174.965,0
	c-23.381,0-42.398,19.036-42.398,42.398c0,1.631,0.121,3.202,0.302,4.771c-3.419-12.556-14.87-21.814-28.491-21.814
	c-16.322,0-29.582,13.302-29.582,29.599c0,4.953,1.248,9.601,3.422,13.687c-4.107-2.294-8.771-3.583-13.803-3.583
	c-15.738,0-28.574,12.816-28.574,28.574c0,6.378,2.112,12.235,5.633,16.966c-1.973-0.467-4.023-0.727-6.157-0.727
	c-15.013,0-27.245,12.232-27.245,27.307c0,10.06,5.432,18.793,13.5,23.543C9.315,162.892,0,173.579,0,186.414
	c0,14.431,11.713,26.181,26.14,26.181c1.169,0,2.435-0.119,3.864-0.342c4.367-0.262,8.914-0.422,13.281-0.422
	c48.192,0,74.691,17.104,85.6,26.482c-2.373-2.86-4.506-5.957-6.318-9.216c-14.286-9.478-39.443-20.667-79.281-20.667
	c-4.449,0-9.056,0.182-13.625,0.442c-1.428,0.222-2.494,0.28-3.521,0.28c-12.536,0-22.759-10.18-22.759-22.739
	c0-12.514,10.223-22.716,22.759-22.716c0.925,0,1.79,0.04,2.675,0.16l1.469,0.161l0.021-0.021c1.105,0.202,2.273,0.321,3.421,0.425
	c13.563,2.312,52.741,11.206,81.093,39.317c-0.119-1.588-0.261-3.22-0.261-4.85v-0.078c-33.767-31.451-80.369-37.891-84.958-38.497
	c-10.424-2.534-18.17-11.932-18.17-23.139c0-13.183,10.744-23.927,23.886-23.927c3.298,0,6.397,0.685,9.216,1.853h0.041
	c0.121,0.059,0.18,0.12,0.303,0.161c7.342,3.236,13.037,6.538,13.037,6.538c16.301,9.135,43.545,27.205,61.336,53.587
	c0.481-1.208,1.084-2.374,1.646-3.542c-23.602-33.766-61.834-53.747-72.52-58.857c-5.574-4.61-9.136-11.552-9.136-19.358
	c0-13.884,11.306-25.173,25.175-25.173c6.034,0,11.569,2.134,15.895,5.676l-0.139-0.123c3.82,2.575,10.723,8.874,10.723,8.874
	c11.391,11.552,33.324,36.725,45.298,69.263c0.924-0.806,1.87-1.531,2.815-2.254C124.498,111.401,96.529,83.29,88.217,75.52h0.021
	c-0.183-0.14-0.321-0.278-0.504-0.44c-1.084-0.986-1.729-1.552-1.869-1.651c-4.71-4.768-7.647-11.288-7.647-18.475
	c0-14.425,11.709-26.196,26.16-26.196c10.42,0,19.395,6.117,23.621,14.949h0.021l5.897,12.415
	c6.236,13.101,19.92,45.617,23.461,84.214c1.068-0.344,2.195-0.604,3.303-0.885c-2.477-26.865-9.68-50.829-16.098-67.492
	c0,0-0.322-0.644-0.867-1.671c-2.01-5.171-3.926-9.534-5.494-13.039c-1.188-3.38-2.03-6.802-2.071-9.597V47.47
	c-0.203-1.692-0.343-3.38-0.343-5.072c0-21.57,17.566-39.158,39.158-39.158c21.59,0,39.158,17.587,39.158,39.158
	c0,1.813-0.141,3.582-0.402,5.295c0,0.121,0,0.24-0.021,0.4c-0.343,4.891-2.295,9.741-2.818,10.988l0.021,0.04
	c-6.841,15.19-18.227,44.975-21.59,79.785c1.109,0.261,2.193,0.562,3.301,0.867c3.62-38.356,17.202-70.63,23.421-83.652
	l5.876-12.415h0.021c4.247-8.832,13.222-14.949,23.604-14.949c14.487,0,26.176,11.771,26.176,26.196
	c0,6.643-2.47,12.659-6.557,17.288l-3.039,2.937c-0.141,0.1-0.283,0.244-0.404,0.342c-8.21,7.687-35.678,35.295-50.321,73.186
	c0.982,0.665,1.932,1.411,2.834,2.113c12.053-31.894,33.586-56.563,44.813-67.934c0,0,4.646-4.285,8.475-7.224l1.667-1.227
	c0.161-0.123,0.384-0.301,0.586-0.424l-0.166,0.123c4.352-3.542,9.882-5.676,15.921-5.676c13.863,0,25.152,11.289,25.152,25.173
	c0,7.807-3.584,14.748-9.116,19.358c-10.522,5.012-47.588,24.427-71.255,57.146c0.604,1.109,1.089,2.236,1.61,3.38
	c17.83-25.372,44.188-42.777,60.107-51.714c0,0,5.693-3.302,12.999-6.538c-0.806,0.34-1.571,0.764-2.295,1.164l2.656-1.325
	c2.838-1.168,5.937-1.853,9.196-1.853c13.181,0,23.908,10.744,23.908,23.927c0,11.207-7.748,20.604-18.154,23.139
	c-1.409,0.202-6.739,0.929-14.407,2.758l-0.039-0.042c-2.798,0.686-4.709,1.21-4.709,1.21l0.141-0.041
	c-17.187,4.548-42.801,14.024-63.971,32.859c0,0.626,0.122,1.188,0.122,1.831c0,0.967-0.122,1.911-0.161,2.856
	c28.15-26.519,65.719-35.071,78.94-37.324c1.125-0.104,2.274-0.223,3.399-0.425v0.021l1.491-0.161c0.887-0.12,1.75-0.16,2.652-0.16
	c12.54,0,22.765,10.202,22.765,22.716c0,12.56-10.225,22.739-22.765,22.739c-1.024,0-2.087-0.059-3.5-0.28
	c-4.585-0.261-9.216-0.442-13.64-0.442c-37.008,0-61.375,9.658-76.106,18.631c-1.268,2.497-2.733,4.892-4.322,7.166
	c13.157-9.518,38.634-22.396,80.429-22.396c4.346,0,8.873,0.16,13.276,0.422c1.434,0.223,2.658,0.342,3.863,0.342
	c14.431,0,26.141-11.75,26.141-26.181C349.929,173.579,340.592,162.892,328.357,160.72"/>
<path  d="M237.323,197.06c-0.221-8.371-2.132-16.317-5.412-23.544c-0.521-1.144-1.045-2.271-1.631-3.38
	c-3.983-7.505-9.454-14.063-16.057-19.317c-0.923-0.703-1.87-1.448-2.834-2.113c-5.638-3.982-11.975-7.041-18.776-8.933
	c-1.107-0.305-2.191-0.605-3.301-0.866c-4.307-0.925-8.754-1.49-13.321-1.49c-5.312,0-10.421,0.747-15.312,2.034
	c-1.147,0.281-2.234,0.521-3.345,0.885c-6.657,2.134-12.835,5.431-18.33,9.559c-0.944,0.723-1.93,1.448-2.815,2.254
	c-6.379,5.411-11.588,12.134-15.314,19.699c-0.563,1.168-1.146,2.334-1.648,3.542c-2.996,7.224-4.668,15.132-4.688,23.424v0.078
	c0,1.63,0.16,3.262,0.279,4.851c0.705,9.155,3.422,17.768,7.728,25.355c1.832,3.259,3.966,6.355,6.338,9.216
	c4.025,3.438,5.998,5.854,6.077,5.936l0.605,0.846c0.303,0.22,0.562,0.482,0.802,0.702c10.707,9.056,24.509,14.528,39.623,14.528
	c20.766,0,39.097-10.322,50.187-26.118c1.631-2.254,3.058-4.648,4.364-7.146c3.985-7.645,6.322-16.217,6.763-25.313
	c0.019-0.945,0.122-1.891,0.122-2.856C237.427,198.248,237.344,197.686,237.323,197.06 M211.167,206.961H198.87h-3.563h-11.246
	v27.084h-16.139v-27.084h-13.302h-3.745h-10.058v-16.18h3.463h3.396h7.305h3.662h9.278v-27.064h16.139v27.064h7.284h3.459h7.427
	h3.399h5.536V206.961z"/>
</svg>